<svg xmlns="http://www.w3.org/2000/svg" version="1.1" xmlns:xlink="http://www.w3.org/1999/xlink" xmlns:svgjs="http://svgjs.dev/svgjs" width="1000" height="315" viewBox="0 0 1000 315"><g transform="matrix(1,0,0,1,-0.606055715665093,-0.3162334653810035)"><svg viewBox="0 0 396 125" data-background-color="#ffffff" preserveAspectRatio="xMidYMid meet" height="315" width="1000" xmlns="http://www.w3.org/2000/svg" xmlns:xlink="http://www.w3.org/1999/xlink"><g id="tight-bounds" transform="matrix(1,0,0,1,0.23999871482635626,0.12548947038928304)"><svg viewBox="0 0 395.52 124.74901590127472" height="124.74901590127472" width="395.52"><g><svg viewBox="0 0 565.6173012573456 178.39856823571174" height="124.74901590127472" width="395.52"><g transform="matrix(1,0,0,1,170.0973012573456,55.12774702165424)"><svg viewBox="0 0 395.52 68.14307419240326" height="68.14307419240326" width="395.52"><g><svg viewBox="0 0 395.52 68.14307419240326" height="68.14307419240326" width="395.52"><g><svg viewBox="0 0 395.52 68.14307419240326" height="68.14307419240326" width="395.52"><g transform="matrix(1,0,0,1,0,0)"><svg width="395.52" viewBox="6.710000038146973 -35.060001373291016 206.30999755859375 35.55000305175781" height="68.14307419240326" data-palette-color="#e8772e"><path d="M24.07-34.94L24.07-34.94Q28.81-34.94 33.5-33.08L33.5-33.08 32.23-29.64Q27.49-31.27 23.95-31.27L23.95-31.27Q21.02-31.27 18.52-30.11 16.02-28.96 14.37-27.01 12.72-25.07 11.79-22.57 10.86-20.07 10.86-17.33L10.86-17.33Q10.86-14.5 11.85-11.95 12.84-9.4 14.62-7.48 16.41-5.57 19.06-4.44 21.7-3.32 24.85-3.32L24.85-3.32Q28.61-3.32 32.69-4.79L32.69-4.79 33.96-1.71Q28.86 0.49 23.8 0.49L23.8 0.49Q20.68 0.49 17.94-0.42 15.21-1.32 13.17-2.94 11.13-4.57 9.67-6.79 8.2-9.01 7.46-11.68 6.71-14.36 6.71-17.31L6.71-17.31Q6.71-22.31 8.8-26.29 10.89-30.27 14.87-32.6 18.85-34.94 24.07-34.94ZM57-35.06L57-35.06Q60.45-35.06 63.44-33.85 66.43-32.64 68.61-30.44 70.8-28.25 72.04-24.96 73.29-21.68 73.29-17.75L73.29-17.75Q73.29-12.43 71.18-8.29 69.06-4.15 65.32-1.89 61.57 0.37 56.83 0.37L56.83 0.37Q53.71 0.37 50.85-0.74 48-1.86 45.7-3.98 43.41-6.1 42.04-9.53 40.67-12.96 40.67-17.26L40.67-17.26Q40.67-21.29 41.92-24.63 43.16-27.98 45.33-30.26 47.51-32.54 50.51-33.8 53.51-35.06 57-35.06ZM56.78-31.42L56.78-31.42Q54.56-31.42 52.51-30.59 50.46-29.76 48.74-28.16 47.02-26.56 45.98-23.86 44.94-21.17 44.94-17.77L44.94-17.77Q44.94-14.53 45.9-11.78 46.85-9.03 48.48-7.18 50.12-5.32 52.35-4.3 54.59-3.27 57.15-3.27L57.15-3.27Q58.88-3.27 60.56-3.78 62.23-4.3 63.77-5.41 65.31-6.52 66.46-8.13 67.62-9.74 68.32-12.11 69.02-14.48 69.02-17.31L69.02-17.31Q69.02-20.19 68.28-22.58 67.55-24.98 66.34-26.59 65.13-28.2 63.54-29.31 61.94-30.42 60.24-30.92 58.54-31.42 56.78-31.42ZM83.66 0L83.66-34.69 88.91-34.69 107.81-5.66 107.81-34.69 111.96-34.69 111.96 0 106.71 0 87.81-29.08 87.81 0 83.66 0ZM144.26-31.03L128.31-31.03 128.31-19.7 142.79-19.7 142.79-16.04 128.31-16.04 128.31 0 124.16 0 124.16-34.69 144.26-34.69 144.26-31.03ZM150.72 0L163.05-34.69 167.76-34.69 180.09 0 175.89 0 172.38-10.08 158.07-10.08 154.56 0 150.72 0ZM171.11-13.72L165.22-30.64 159.32-13.72 171.11-13.72ZM199.23-31.52L192.54-31.52 192.54-19.87Q193.01-19.9 194.15-19.91 195.3-19.92 195.93-19.93 196.57-19.95 197.72-20.03 198.86-20.12 199.56-20.23 200.26-20.34 201.24-20.57 202.23-20.8 202.86-21.11 203.48-21.41 204.17-21.89 204.87-22.36 205.26-22.95 205.65-23.54 205.91-24.35 206.16-25.17 206.16-26.15L206.16-26.15Q206.16-26.88 206.02-27.54 205.87-28.2 205.41-28.96 204.94-29.71 204.21-30.25 203.48-30.79 202.2-31.15 200.92-31.52 199.23-31.52L199.23-31.52ZM192.54-16.65L192.54-16.65 192.54-3.66 199.01-3.66Q199.89-3.66 200.49-3.67 201.09-3.69 202.21-3.82 203.33-3.96 204.13-4.19 204.92-4.42 205.9-4.9 206.87-5.37 207.47-6.03 208.07-6.69 208.48-7.73 208.9-8.76 208.9-10.08L208.9-10.08Q208.9-13.33 206.38-15.16 203.87-16.99 199.62-16.99L199.62-16.99Q199.16-16.99 192.54-16.65ZM188.39 0L188.39-34.69 200.62-34.69Q202.4-34.69 203.88-34.31 205.36-33.94 206.32-33.35 207.29-32.76 208.03-31.96 208.78-31.15 209.17-30.4 209.56-29.64 209.8-28.78 210.05-27.93 210.11-27.38 210.17-26.83 210.17-26.34L210.17-26.34Q210.17-24.22 208.73-22.11 207.29-20 205.68-19.38L205.68-19.38Q208.9-18.8 210.96-16.27 213.02-13.75 213.02-10.52L213.02-10.52Q213.02-9.77 212.89-8.94 212.76-8.11 212.37-7.06 211.97-6.01 211.36-5.05 210.75-4.1 209.7-3.16 208.65-2.22 207.3-1.54 205.94-0.85 203.98-0.43 202.01 0 199.67 0L199.67 0 188.39 0Z" opacity="1" transform="matrix(1,0,0,1,0,0)" fill="#e8772e" class="undefined-text-0" data-fill-palette-color="primary" id="text-0"></path></svg></g></svg></g></svg></g></svg></g><g><svg viewBox="0 0 154.01035687429982 178.39856823571174" height="178.39856823571174" width="154.01035687429982"><g><svg xmlns="http://www.w3.org/2000/svg" xmlns:xlink="http://www.w3.org/1999/xlink" version="1.1" x="0" y="0" viewBox="9.63800048828125 3.246999979019165 80.7239990234375 93.50699615478516" enable-background="new 0 0 100 100" xml:space="preserve" height="178.39856823571174" width="154.01035687429982" class="icon-icon-0" data-fill-palette-color="accent" id="icon-0"><g fill="#fb9e00" data-fill-palette-color="accent"><g fill="#fb9e00" data-fill-palette-color="accent"><polygon points="36.703,11.011 9.638,26.636 9.638,38.757 36.703,23.131 63.767,38.757 63.767,26.636   " fill="#fb9e00" data-fill-palette-color="accent"></polygon></g><g fill="#fb9e00" data-fill-palette-color="accent"><polygon points="63.298,89.092 36.233,73.467 36.233,61.348 63.298,76.973 90.362,61.348 90.362,73.467   " fill="#fb9e00" data-fill-palette-color="accent"></polygon></g><g fill="#fb9e00" data-fill-palette-color="accent"><polygon points="9.638,42.012 36.703,26.386 47.198,32.446 20.134,48.072 20.134,79.324 9.638,73.264   " fill="#fb9e00" data-fill-palette-color="accent"></polygon></g><g fill="#fb9e00" data-fill-palette-color="accent"><polygon points="77.083,18.872 50.018,3.247 39.522,9.307 66.586,24.932 66.586,56.184 77.083,50.124   " fill="#fb9e00" data-fill-palette-color="accent"></polygon></g><g fill="#fb9e00" data-fill-palette-color="accent"><polygon points="23.01,81.127 23.011,49.876 33.507,43.816 33.507,75.068 60.571,90.693 50.075,96.754   " fill="#fb9e00" data-fill-palette-color="accent"></polygon></g><g fill="#fb9e00" data-fill-palette-color="accent"><polygon points="90.362,58.092 90.362,26.84 79.866,20.78 79.866,52.031 52.802,67.658 63.298,73.719   " fill="#fb9e00" data-fill-palette-color="accent"></polygon></g></g></svg></g></svg></g></svg></g><defs></defs></svg><rect width="395.52" height="124.74901590127472" fill="none" stroke="none" visibility="hidden"></rect></g></svg></g></svg>